Unthinkable.2010.720p.BRRip.x264.aac.mp4-anoXmous

Format                           : MPEG-4
Format profile                   : Base Media
Codec ID                         : isom
File size                        : 699 MiB
Duration                         : 1h 37mn
Overall bit rate mode            : Variable
Overall bit rate                 : 1 007 Kbps

Video
ID                               : 1
Format                           : AVC
Format/Info                      : Advanced Video Codec
Format profile                   : High@L4.1
Format settings, CABAC           : Yes
Format settings, ReFrames        : 4 frames
Codec ID                         : avc1
Codec ID/Info                    : Advanced Video Coding
Duration                         : 1h 37mn
Bit rate                         : 935 Kbps
Maximum bit rate                 : 11.1 Mbps
Width                            : 1 280 pixels
Height                           : 688 pixels
Display aspect ratio             : 16:9
Original display aspect ratio    : 1.850
Frame rate mode                  : Constant
Frame rate                       : 23.976 fps
Color space                      : YUV
Chroma subsampling               : 4:2:0
Bit depth                        : 8 bits
Scan type                        : Progressive
Bits/(Pixel*Frame)               : 0.044
Stream size                      : 649 MiB (93%)
Writing library                  : x264 core 119 r2106 07efeb4


Audio
ID                               : 2
Format                           : AAC
Format/Info                      : Advanced Audio Codec
Format profile                   : LC
Codec ID                         : 40
Duration                         : 1h 37mn
Bit rate mode                    : Variable
Bit rate                         : 68.8 Kbps
Maximum bit rate                 : 123 Kbps
Channel(s)                       : 2 channels
Channel positions                : Front: L R
Sampling rate                    : 48.0 KHz
Compression mode                 : Lossy
Stream size                      : 47.8 MiB (7%)

                                SUB:
Unthinkable.2010.720p.BRRip.x264.aac.mp4-anoXmousus_swe.srt
 
http://www.imdb.com/title/tt0914863/

+++++++ This work very fine with PSP and XBOX :) +++++++++
